<?xml version="1.0" encoding="UTF-8" standalone="no"?><!DOCTYPE svg PUBLIC "-//W3C//DTD SVG 1.1//EN" "http://www.w3.org/Graphics/SVG/1.1/DTD/svg11.dtd"><svg width="100%" height="100%" fill="currentColor" viewBox="0 0 445 97" version="1.1" xmlns="http://www.w3.org/2000/svg" xmlns:xlink="http://www.w3.org/1999/xlink" xml:space="preserve" style="fill-rule:evenodd;clip-rule:evenodd;stroke-linejoin:round;stroke-miterlimit:2;"><rect id="Artboard1" x="0" y="0" width="444.015" height="96.675" style="fill:none;"/><g id="Artboard11"><g><g><path d="M91.661,16.327l0,64.347c0,4.439 2.692,8.044 -1.748,8.044l-75.034,-0c-4.44,-0 -8.044,-3.605 -8.044,-8.044l0,-64.347c0,-4.439 3.604,-8.043 8.044,-8.043l75.034,-0c4.44,-0 1.748,3.604 1.748,8.043Zm-28.719,40.664c3.008,-4.106 4.63,-9.065 4.63,-14.155c-0,-13.138 -10.812,-23.949 -23.95,-23.949c-13.139,-0 -23.95,10.811 -23.95,23.949c0,13.139 10.811,23.95 23.95,23.95c5.095,0 10.06,-1.626 14.168,-4.64c0.11,0.147 0.228,0.286 0.36,0.422l14.186,14.186c0.691,0.691 1.629,1.08 2.606,1.08c2.022,-0 3.686,-1.664 3.686,-3.685c-0,-0.977 -0.388,-1.915 -1.079,-2.605l-14.185,-14.186c-0.132,-0.133 -0.273,-0.256 -0.422,-0.367Zm-1.765,-14.161c-0,9.628 -7.923,17.551 -17.552,17.551c-9.628,-0 -17.551,-7.923 -17.551,-17.551c-0,-9.629 7.923,-17.552 17.551,-17.552c9.629,0 17.552,7.923 17.552,17.552Z" style=""/><path d="M91.661,16.327l0,64.347c0,4.439 2.692,8.044 -1.748,8.044l-75.034,-0c-4.44,-0 -8.044,-3.605 -8.044,-8.044l0,-64.347c0,-4.439 3.604,-8.043 8.044,-8.043l75.034,-0c4.44,-0 1.748,3.604 1.748,8.043Zm-1.553,70.08c-0.054,-0.431 -0.143,-1.08 -0.244,-1.59c-0.246,-1.241 -0.505,-2.65 -0.505,-4.143l-0,-64.347c-0,-1.492 0.259,-2.902 0.505,-4.142c0.114,-0.577 0.225,-1.107 0.278,-1.58c0,-0.002 0.001,-0.005 0.001,-0.008c-0.078,-0.006 -0.157,-0.01 -0.23,-0.01l-75.034,-0c-3.169,-0 -5.741,2.572 -5.741,5.74l0,64.347c0,3.168 2.572,5.741 5.741,5.741l75.034,-0c0.062,-0 0.128,-0.003 0.195,-0.008Z" style=""/><path d="M437.943,16.327l-0,64.347c-0,4.439 -3.605,8.044 -8.044,8.044l-341.304,-0l-0,-80.434l341.304,-0c4.439,-0 8.044,3.604 8.044,8.043Zm-5,0c-0,-1.68 -1.364,-3.043 -3.044,-3.043l-336.304,-0l-0,70.434l336.304,-0c1.68,-0 3.044,-1.364 3.044,-3.044l-0,-64.347Z" style=""/><path d="M98.413,13.183c0.045,0 0.091,0.001 0.137,0.002c-0.046,-0.001 -0.091,-0.001 -0.137,-0.002Zm-0,-0c-5.208,-0.018 -5.201,5.192 -5.226,5.166c-0,-4.656 0.024,-5.288 0.024,-5.288c-0,0 2.858,0.092 5.202,0.122Z" style=""/><path d="M98.413,83.923c-2.344,0.03 -5.202,0.122 -5.202,0.122c-0,-0 -0.024,-0.632 -0.024,-5.288c0.025,-0.026 0.018,5.184 5.226,5.166Zm-0,-0c0.046,-0.001 0.091,-0.001 0.137,-0.002c-0.046,0.001 -0.092,0.002 -0.137,0.002Z" style=""/></g><g><path d="M121.791,71.171c-5.218,-0 -10.106,-0.986 -14.666,-2.958c-0.493,-0.205 -0.903,-0.544 -1.232,-1.017c-0.329,-0.472 -0.493,-0.975 -0.493,-1.509c-0,-0.699 0.236,-1.304 0.709,-1.818c0.472,-0.513 1.078,-0.77 1.817,-0.77c0.411,-0 0.801,0.082 1.171,0.246c3.779,1.685 7.826,2.527 12.139,2.527c7.189,-0 10.783,-2.362 10.783,-7.087c0,-1.232 -0.462,-2.259 -1.386,-3.08c-0.924,-0.822 -2.064,-1.469 -3.42,-1.941c-1.356,-0.473 -3.286,-1.038 -5.792,-1.695c-3.328,-0.863 -6.018,-1.695 -8.072,-2.496c-2.054,-0.801 -3.821,-2.002 -5.299,-3.604c-1.479,-1.602 -2.219,-3.738 -2.219,-6.409c0,-2.341 0.616,-4.467 1.849,-6.377c1.232,-1.91 3.05,-3.43 5.453,-4.56c2.403,-1.13 5.289,-1.694 8.658,-1.694c4.518,-0 8.606,0.677 12.262,2.033c1.15,0.411 1.725,1.232 1.725,2.465c0,0.657 -0.226,1.253 -0.678,1.787c-0.452,0.534 -1.047,0.801 -1.787,0.801c-0.246,-0 -0.575,-0.082 -0.986,-0.247c-3.204,-1.109 -6.511,-1.663 -9.92,-1.663c-3.246,-0 -5.885,0.616 -7.918,1.848c-2.034,1.232 -3.05,2.958 -3.05,5.176c-0,1.479 0.482,2.68 1.448,3.605c0.965,0.924 2.177,1.643 3.635,2.156c1.458,0.514 3.441,1.058 5.946,1.633c3.246,0.781 5.864,1.561 7.857,2.342c1.992,0.78 3.697,1.992 5.114,3.635c1.417,1.644 2.126,3.862 2.126,6.655c-0,2.301 -0.657,4.365 -1.972,6.193c-1.314,1.828 -3.163,3.255 -5.546,4.282c-2.382,1.027 -5.134,1.541 -8.256,1.541Z" style="fill-rule:nonzero;"/><path d="M147.362,70.863c-0.78,-0 -1.437,-0.267 -1.971,-0.801c-0.534,-0.534 -0.801,-1.192 -0.801,-1.972l-0,-39.991c-0,-0.78 0.267,-1.448 0.801,-2.002c0.534,-0.555 1.191,-0.832 1.971,-0.832c0.781,-0 1.448,0.277 2.003,0.832c0.555,0.554 0.832,1.222 0.832,2.002l-0,16.083c1.561,-1.726 3.245,-3.102 5.053,-4.129c1.807,-1.027 3.943,-1.54 6.408,-1.54c2.259,-0 4.221,0.534 5.885,1.602c1.663,1.068 2.937,2.526 3.82,4.375c0.883,1.848 1.325,3.882 1.325,6.1l-0,17.5c-0,0.78 -0.278,1.438 -0.832,1.972c-0.555,0.534 -1.222,0.801 -2.003,0.801c-0.78,-0 -1.438,-0.267 -1.972,-0.801c-0.534,-0.534 -0.801,-1.192 -0.801,-1.972l0,-16.884c0,-5.011 -2.259,-7.517 -6.778,-7.517c-2.054,-0 -3.892,0.534 -5.515,1.602c-1.622,1.068 -3.152,2.506 -4.59,4.313l-0,18.486c-0,0.78 -0.277,1.438 -0.832,1.972c-0.555,0.534 -1.222,0.801 -2.003,0.801Z" style="fill-rule:nonzero;"/><path d="M195.98,71.171c-3.163,-0 -5.936,-0.678 -8.319,-2.034c-2.383,-1.355 -4.221,-3.276 -5.515,-5.761c-1.294,-2.485 -1.941,-5.33 -1.941,-8.534c0,-3.204 0.647,-6.049 1.941,-8.534c1.294,-2.486 3.132,-4.406 5.515,-5.762c2.383,-1.355 5.156,-2.033 8.319,-2.033c3.122,-0 5.874,0.678 8.257,2.033c2.382,1.356 4.231,3.276 5.545,5.762c1.315,2.485 1.972,5.33 1.972,8.534c0,3.204 -0.657,6.049 -1.972,8.534c-1.314,2.485 -3.163,4.406 -5.545,5.761c-2.383,1.356 -5.135,2.034 -8.257,2.034Zm-0,-5.115c1.684,0 3.296,-0.39 4.837,-1.17c1.54,-0.781 2.814,-2.013 3.82,-3.697c1.007,-1.685 1.51,-3.821 1.51,-6.409c-0,-2.547 -0.503,-4.662 -1.51,-6.346c-1.006,-1.685 -2.28,-2.907 -3.82,-3.667c-1.541,-0.76 -3.153,-1.14 -4.837,-1.14c-1.726,0 -3.359,0.38 -4.899,1.14c-1.541,0.76 -2.804,1.982 -3.79,3.667c-0.986,1.684 -1.478,3.799 -1.478,6.346c-0,2.588 0.492,4.724 1.478,6.409c0.986,1.684 2.249,2.916 3.79,3.697c1.54,0.78 3.173,1.17 4.899,1.17Z" style="fill-rule:nonzero;"/><path d="M230.178,71.171c-5.997,-0 -8.996,-2.711 -8.996,-8.134l-0,-19.102l-4.375,0c-0.329,0 -0.606,-0.113 -0.832,-0.339c-0.226,-0.226 -0.339,-0.503 -0.339,-0.831c0,-0.411 0.185,-0.76 0.555,-1.048l8.38,-8.195c0.369,-0.37 0.719,-0.555 1.047,-0.555c0.329,0 0.606,0.123 0.832,0.37c0.226,0.246 0.339,0.534 0.339,0.863l0,4.929l6.963,0c0.698,0 1.273,0.226 1.725,0.678c0.452,0.452 0.678,1.027 0.678,1.725c0,0.657 -0.226,1.222 -0.678,1.695c-0.452,0.472 -1.027,0.708 -1.725,0.708l-6.963,0l0,18.609c0,1.602 0.38,2.619 1.14,3.05c0.76,0.432 1.715,0.647 2.865,0.647c0.822,0 1.643,-0.123 2.465,-0.369c0.164,-0.041 0.339,-0.083 0.524,-0.124c0.185,-0.041 0.421,-0.061 0.708,-0.061c0.576,-0 1.089,0.215 1.541,0.647c0.452,0.431 0.678,0.955 0.678,1.571c-0,0.945 -0.473,1.664 -1.418,2.157c-1.602,0.739 -3.306,1.109 -5.114,1.109Z" style="fill-rule:nonzero;"/><path d="M246.754,70.863c-0.781,-0 -1.438,-0.267 -1.972,-0.801c-0.534,-0.534 -0.801,-1.192 -0.801,-1.972l-0,-37.711c-0,-0.78 0.267,-1.448 0.801,-2.002c0.534,-0.555 1.191,-0.832 1.972,-0.832l23.969,-0c0.74,-0 1.366,0.256 1.88,0.77c0.513,0.513 0.77,1.14 0.77,1.879c-0,0.74 -0.257,1.356 -0.77,1.849c-0.514,0.493 -1.14,0.739 -1.88,0.739l-21.135,0l0,13.618l18.979,0c0.739,0 1.365,0.257 1.879,0.77c0.513,0.514 0.77,1.14 0.77,1.88c0,0.739 -0.257,1.355 -0.77,1.848c-0.514,0.493 -1.14,0.74 -1.879,0.74l-18.979,-0l0,16.452c0,0.78 -0.277,1.438 -0.832,1.972c-0.554,0.534 -1.222,0.801 -2.002,0.801Z" style="fill-rule:nonzero;"/><path d="M282.308,32.721c-0.863,-0 -1.602,-0.308 -2.219,-0.925c-0.616,-0.616 -0.924,-1.355 -0.924,-2.218l0,-0.246c0,-0.863 0.308,-1.602 0.924,-2.219c0.617,-0.616 1.356,-0.924 2.219,-0.924l0.369,0c0.863,0 1.602,0.308 2.219,0.924c0.616,0.617 0.924,1.356 0.924,2.219l-0,0.246c-0,0.863 -0.308,1.602 -0.924,2.218c-0.617,0.617 -1.356,0.925 -2.219,0.925l-0.369,-0Zm0.123,38.142c-0.781,-0 -1.438,-0.267 -1.972,-0.801c-0.534,-0.534 -0.801,-1.192 -0.801,-1.972l0,-26.435c0,-0.78 0.267,-1.448 0.801,-2.002c0.534,-0.555 1.191,-0.832 1.972,-0.832c0.821,-0 1.499,0.267 2.033,0.801c0.534,0.534 0.801,1.212 0.801,2.033l0,26.435c0,0.78 -0.277,1.438 -0.832,1.972c-0.554,0.534 -1.222,0.801 -2.002,0.801Z" style="fill-rule:nonzero;"/><path d="M297.774,70.863c-0.781,-0 -1.438,-0.267 -1.972,-0.801c-0.534,-0.534 -0.801,-1.192 -0.801,-1.972l0,-26.435c0,-0.78 0.267,-1.448 0.801,-2.002c0.534,-0.555 1.191,-0.832 1.972,-0.832c0.78,-0 1.448,0.277 2.003,0.832c0.554,0.554 0.831,1.222 0.831,2.002l0,2.527c1.561,-1.726 3.246,-3.102 5.053,-4.129c1.808,-1.027 3.944,-1.54 6.409,-1.54c2.259,-0 4.22,0.534 5.884,1.602c1.664,1.068 2.937,2.526 3.82,4.375c0.884,1.848 1.325,3.882 1.325,6.1l0,17.5c0,0.78 -0.277,1.438 -0.832,1.972c-0.554,0.534 -1.222,0.801 -2.002,0.801c-0.781,-0 -1.438,-0.267 -1.972,-0.801c-0.534,-0.534 -0.801,-1.192 -0.801,-1.972l-0,-16.884c-0,-5.011 -2.259,-7.517 -6.778,-7.517c-2.054,-0 -3.892,0.534 -5.515,1.602c-1.623,1.068 -3.153,2.506 -4.591,4.313l0,18.486c0,0.78 -0.277,1.438 -0.831,1.972c-0.555,0.534 -1.223,0.801 -2.003,0.801Z" style="fill-rule:nonzero;"/><path d="M345.529,71.171c-2.547,-0 -4.961,-0.647 -7.241,-1.941c-2.28,-1.294 -4.128,-3.184 -5.545,-5.669c-1.418,-2.485 -2.126,-5.392 -2.126,-8.719c-0,-3.328 0.708,-6.234 2.126,-8.719c1.417,-2.485 3.265,-4.375 5.545,-5.669c2.28,-1.294 4.694,-1.941 7.241,-1.941c4.025,-0 7.538,1.561 10.536,4.683l0,-15.097c0,-0.821 0.278,-1.499 0.832,-2.033c0.555,-0.534 1.222,-0.801 2.003,-0.801c0.78,-0 1.438,0.277 1.972,0.832c0.534,0.554 0.801,1.222 0.801,2.002l-0,39.991c-0,0.78 -0.267,1.438 -0.801,1.972c-0.534,0.534 -1.192,0.801 -1.972,0.801c-0.781,-0 -1.448,-0.267 -2.003,-0.801c-0.554,-0.534 -0.832,-1.192 -0.832,-1.972l0,-1.602c-2.998,3.122 -6.511,4.683 -10.536,4.683Zm0.801,-5.238c1.889,0 3.666,-0.421 5.33,-1.263c1.663,-0.842 3.132,-1.961 4.405,-3.358l0,-12.94c-1.273,-1.397 -2.742,-2.516 -4.405,-3.358c-1.664,-0.842 -3.441,-1.264 -5.33,-1.264c-3.04,0 -5.484,0.966 -7.333,2.897c-1.849,1.93 -2.773,4.662 -2.773,8.195c0,3.533 0.924,6.264 2.773,8.195c1.849,1.931 4.293,2.896 7.333,2.896Z" style="fill-rule:nonzero;"/><path d="M385.458,71.171c-5.012,-0 -8.925,-1.428 -11.739,-4.283c-2.814,-2.855 -4.221,-6.87 -4.221,-12.046c0,-2.917 0.534,-5.607 1.602,-8.072c1.068,-2.465 2.712,-4.457 4.93,-5.977c2.218,-1.52 4.95,-2.28 8.195,-2.28c3.04,-0 5.669,0.708 7.887,2.126c2.219,1.417 3.903,3.307 5.053,5.669c1.15,2.362 1.725,4.939 1.725,7.733c0,0.78 -0.256,1.438 -0.77,1.972c-0.513,0.534 -1.201,0.801 -2.064,0.801l-20.889,-0c0.329,2.875 1.397,5.114 3.204,6.716c1.808,1.602 4.334,2.403 7.58,2.403c1.725,0 3.234,-0.164 4.528,-0.493c1.294,-0.328 2.558,-0.801 3.79,-1.417c0.329,-0.164 0.698,-0.246 1.109,-0.246c0.657,-0 1.233,0.226 1.726,0.677c0.492,0.452 0.739,1.027 0.739,1.726c-0,0.903 -0.534,1.663 -1.602,2.28c-1.602,0.903 -3.184,1.581 -4.745,2.033c-1.561,0.452 -3.574,0.678 -6.038,0.678Zm7.887,-18.917c-0.123,-2.013 -0.647,-3.697 -1.572,-5.053c-0.924,-1.355 -2.064,-2.352 -3.419,-2.988c-1.356,-0.637 -2.732,-0.955 -4.129,-0.955c-1.397,-0 -2.773,0.318 -4.128,0.955c-1.356,0.636 -2.486,1.633 -3.389,2.988c-0.904,1.356 -1.418,3.04 -1.541,5.053l18.178,-0Z" style="fill-rule:nonzero;"/><path d="M409.058,70.863c-0.781,-0 -1.438,-0.267 -1.972,-0.801c-0.534,-0.534 -0.801,-1.192 -0.801,-1.972l-0,-26.435c-0,-0.78 0.267,-1.448 0.801,-2.002c0.534,-0.555 1.191,-0.832 1.972,-0.832c0.78,-0 1.448,0.277 2.002,0.832c0.555,0.554 0.832,1.222 0.832,2.002l0,2.65c2.876,-3.861 6.1,-5.792 9.674,-5.792l0.308,-0c0.781,-0 1.428,0.267 1.941,0.801c0.514,0.534 0.771,1.191 0.771,1.972c-0,0.78 -0.267,1.417 -0.802,1.91c-0.534,0.493 -1.211,0.739 -2.033,0.739l-0.308,0c-1.972,0 -3.779,0.483 -5.423,1.448c-1.643,0.966 -3.019,2.291 -4.128,3.975l0,18.732c0,0.78 -0.277,1.438 -0.832,1.972c-0.554,0.534 -1.222,0.801 -2.002,0.801Z" style="fill-rule:nonzero;"/></g></g></g></svg>